<?xml version="1.0" standalone="no"?>
<!DOCTYPE svg PUBLIC "-//W3C//DTD SVG 20010904//EN"
 "http://www.w3.org/TR/2001/REC-SVG-20010904/DTD/svg10.dtd">
<svg version="1.0" xmlns="http://www.w3.org/2000/svg"
 width="600px" height="400px" viewBox="0 0 612.000000 490.000000"
 preserveAspectRatio="xMidYMid meet">

<g transform="translate(0.000000,490.000000) scale(0.100000,-0.100000)"
fill="#000000" stroke="none">
<path d="M2570 3649 c-57 -5 -52 -6 43 -7 64 -1 107 -6 107 -12 0 -6 20 -9 45
-8 24 0 42 5 39 10 -3 5 -19 6 -35 3 -17 -4 -35 -2 -42 3 -17 14 -80 18 -157
11z"/>
<path d="M2426 3631 c-4 -5 3 -7 14 -4 23 6 26 13 6 13 -8 0 -17 -4 -20 -9z"/>
<path d="M2528 3623 c6 -2 18 -2 25 0 6 3 1 5 -13 5 -14 0 -19 -2 -12 -5z"/>
<path d="M2608 3623 c12 -2 32 -2 45 0 12 2 2 4 -23 4 -25 0 -35 -2 -22 -4z"/>
<path d="M2563 3603 c-6 -15 -39 -14 -121 3 -25 5 -44 1 -80 -19 -30 -16 -53
-23 -61 -18 -10 6 -4 11 18 16 18 4 30 9 27 12 -9 10 -76 -18 -69 -30 4 -6 0
-8 -10 -4 -21 8 -49 -2 -41 -14 3 -5 10 -9 15 -9 6 0 8 4 5 9 -3 5 30 8 73 7
52 -1 76 2 71 9 -12 15 85 11 103 -3 15 -12 37 -11 70 3 10 4 40 5 67 3 27 -3
55 -1 62 3 9 6 5 9 -12 9 -14 0 -34 6 -45 13 -33 23 -66 27 -72 10z"/>
<path d="M2890 3600 c0 -5 14 -10 32 -10 36 0 35 4 -4 14 -17 4 -28 2 -28 -4z"/>
<path d="M2715 3580 c-13 -21 8 -30 70 -30 72 0 96 16 38 25 -21 3 -52 8 -70
11 -17 2 -34 0 -38 -6z"/>
<path d="M2935 3583 c-23 -3 -44 -12 -52 -23 -7 -10 -23 -20 -36 -22 -12 -2
-21 -9 -19 -16 1 -7 -9 -12 -25 -12 -21 0 -24 3 -14 9 11 7 5 11 -23 16 -20 4
-40 5 -43 1 -4 -3 7 -6 23 -6 22 0 26 -3 14 -10 -8 -5 -26 -10 -40 -10 -20 0
-22 -2 -10 -11 11 -8 7 -9 -17 -5 -47 9 -91 14 -70 9 9 -2 17 -8 17 -13 0 -16
-36 -29 -61 -22 -23 6 -23 6 6 12 22 5 10 8 -42 11 -39 2 -69 1 -67 -2 2 -4
-10 -9 -27 -13 -42 -8 -59 -6 -34 3 11 5 -44 8 -125 7 -80 0 -122 -3 -95 -5
29 -2 43 -6 33 -10 -9 -3 60 -7 154 -8 129 -1 173 -5 180 -15 7 -9 11 -10 14
-2 3 7 13 10 23 7 10 -3 22 0 25 5 3 6 15 8 26 5 27 -7 113 19 97 29 -7 5 0 8
18 8 23 0 27 -3 15 -10 -11 -7 -6 -10 20 -9 28 0 31 2 15 9 -15 6 -8 8 25 8
25 0 70 4 100 9 l55 9 -34 8 c-19 5 -41 15 -49 22 -11 12 -9 14 15 14 16 0 34
5 41 12 6 6 14 9 17 6 3 -3 -9 -13 -27 -21 -18 -9 -28 -17 -21 -17 6 0 19 -3
29 -7 12 -4 15 -3 10 5 -4 7 -1 12 7 12 21 0 29 27 11 34 -9 3 -16 5 -17 4 -1
-1 -20 -3 -42 -5z m-40 -62 c17 -7 16 -9 -13 -16 -18 -4 -36 -4 -39 -1 -4 3 5
7 18 7 21 1 21 2 -6 9 -27 7 -28 8 -5 8 14 0 34 -3 45 -7z m-532 -48 c-7 -2
-21 -2 -30 0 -10 3 -4 5 12 5 17 0 24 -2 18 -5z"/>
<path d="M3039 3557 c11 -14 11 -18 -4 -23 -13 -5 -14 -9 -3 -15 20 -13 31
-11 24 6 -3 8 -1 15 3 15 5 0 11 -6 14 -12 2 -7 7 -10 11 -7 4 4 -8 17 -26 30
-21 15 -28 17 -19 6z"/>
<path d="M2338 3543 c7 -3 16 -2 19 1 4 3 -2 6 -13 5 -11 0 -14 -3 -6 -6z"/>
<path d="M2115 3470 c11 -5 27 -9 35 -9 13 -1 13 0 0 9 -8 5 -24 9 -35 9 l-20
0 20 -9z"/>
<path d="M2044 3439 l-29 -32 28 18 c38 24 34 5 -6 -22 -17 -13 -26 -23 -20
-23 7 0 15 5 18 10 3 6 13 10 21 10 9 0 12 -5 8 -12 -4 -6 -3 -8 3 -5 5 3 9
21 8 39 -1 18 3 36 9 40 7 5 7 8 0 8 -5 0 -23 -14 -40 -31z"/>
<path d="M4220 3404 c-391 -90 -431 -99 -565 -129 -137 -31 -154 -36 -140 -41
6 -3 79 -29 164 -58 l154 -53 155 59 c85 32 157 57 159 55 2 -2 -61 -41 -139
-87 -79 -46 -144 -84 -145 -84 -1 -1 -7 -45 -13 -97 -5 -51 -13 -111 -16 -132
l-6 -37 64 60 c34 33 66 60 70 60 4 0 38 -40 75 -90 37 -49 70 -86 74 -82 7 7
156 277 317 575 41 76 73 139 71 141 -2 1 -128 -26 -279 -60z"/>
<path d="M2568 3423 c7 -3 16 -2 19 1 4 3 -2 6 -13 5 -11 0 -14 -3 -6 -6z"/>
<path d="M2606 3405 c-3 -8 -14 -15 -25 -15 -20 0 -37 -32 -26 -50 3 -5 20
-10 36 -10 33 0 51 26 28 41 -11 7 -11 9 -1 9 7 0 11 4 7 9 -3 5 -1 12 5 16 5
3 10 -2 10 -12 0 -15 2 -16 10 -3 6 9 5 17 -3 22 -19 12 -34 9 -41 -7z"/>
<path d="M2670 3408 c0 -5 11 -8 25 -8 14 0 25 -4 25 -10 0 -6 52 -9 133 -7
72 1 107 3 77 5 -43 3 -51 6 -35 13 17 8 16 9 -5 4 -14 -3 -41 -8 -60 -10 -30
-4 -31 -3 -10 4 18 6 6 8 -40 5 -43 -3 -58 -1 -45 4 15 7 10 9 -22 8 -24 0
-43 -4 -43 -8z"/>
<path d="M2678 3383 c7 -3 16 -2 19 1 4 3 -2 6 -13 5 -11 0 -14 -3 -6 -6z"/>
<path d="M3053 3383 c9 -2 23 -2 30 0 6 3 -1 5 -18 5 -16 0 -22 -2 -12 -5z"/>
<path d="M1986 3365 c6 -14 4 -17 -9 -12 -22 8 -44 -20 -28 -36 10 -9 11 -8 6
6 -9 21 3 22 26 1 15 -14 17 -13 15 15 -1 16 -5 33 -9 38 -5 4 -5 -1 -1 -12z"/>
<path d="M2056 3362 c-2 -4 -1 -14 4 -21 10 -17 31 -5 23 14 -6 16 -19 20 -27
7z"/>
<path d="M2983 3351 c-13 -10 -23 -21 -23 -23 0 -3 26 -1 58 4 31 4 69 5 83 2
15 -3 30 1 37 9 13 16 17 14 -73 22 -50 5 -64 2 -82 -14z"/>
<path d="M3260 3350 c0 -4 7 -11 16 -14 10 -4 14 -12 10 -23 -4 -10 -4 -14 0
-11 4 4 16 1 28 -7 27 -19 42 -19 26 0 -7 8 -10 15 -6 15 4 0 -1 11 -9 24 -15
22 -65 34 -65 16z m66 -38 c-6 -5 -36 23 -36 34 0 4 9 -1 20 -11 11 -10 18
-20 16 -23z"/>
<path d="M3190 3325 c0 -15 -5 -23 -12 -20 -15 6 -45 -11 -36 -20 5 -6 26 -11
49 -14 4 -1 9 -10 12 -22 4 -16 12 -20 39 -17 43 4 45 32 3 36 -41 5 -53 19
-30 36 21 15 15 46 -10 46 -9 0 -15 -9 -15 -25z"/>
<path d="M2730 3330 c0 -6 32 -10 75 -10 43 0 75 4 75 10 0 6 -32 10 -75 10
-43 0 -75 -4 -75 -10z"/>
<path d="M2015 3320 c-8 -13 15 -24 27 -12 6 6 4 11 -6 15 -8 3 -18 2 -21 -3z"/>
<path d="M2654 3305 c26 -20 66 -19 66 0 0 11 -11 15 -42 15 -40 -1 -42 -2
-24 -15z"/>
<path d="M2065 3290 c3 -5 8 -10 11 -10 2 0 4 5 4 10 0 6 -5 10 -11 10 -5 0
-7 -4 -4 -10z"/>
<path d="M2101 3297 c3 -4 21 -9 40 -11 19 -3 43 -8 54 -12 15 -5 17 -4 10 4
-6 7 -33 15 -60 18 -28 4 -47 4 -44 1z"/>
<path d="M2223 3294 c2 -2 23 -10 48 -17 52 -15 85 -12 93 9 5 12 -7 14 -69
13 -42 -1 -74 -3 -72 -5z m105 -11 c-10 -2 -26 -2 -35 0 -10 3 -2 5 17 5 19 0
27 -2 18 -5z"/>
<path d="M2380 3291 c0 -6 5 -13 10 -16 6 -3 10 1 10 9 0 9 -4 16 -10 16 -5 0
-10 -4 -10 -9z"/>
<path d="M1998 3283 c7 -3 16 -2 19 1 4 3 -2 6 -13 5 -11 0 -14 -3 -6 -6z"/>
<path d="M3366 3265 c-9 -26 -7 -32 5 -12 6 10 9 21 6 23 -2 3 -7 -2 -11 -11z"/>
<path d="M2343 3246 c-46 -17 -51 -26 -11 -20 24 4 45 0 71 -15 40 -23 57 -26
57 -12 0 5 -12 11 -27 14 -16 4 -35 11 -43 17 -13 9 -13 11 0 20 13 9 13 10 0
9 -8 -1 -29 -7 -47 -13z"/>
<path d="M2489 3234 l-24 -27 40 6 c22 3 32 3 22 0 -20 -5 -18 -24 4 -31 8 -3
11 -1 7 3 -4 4 0 13 8 20 21 15 10 55 -15 55 -10 0 -28 -12 -42 -26z"/>
<path d="M3046 3243 c-3 -3 -6 -15 -6 -27 0 -15 3 -17 12 -8 19 19 37 14 35
-9 -1 -12 -11 -25 -24 -30 -13 -5 -23 -13 -23 -19 0 -17 29 -11 52 10 12 11
29 20 37 20 14 0 14 2 1 11 -11 7 -4 8 25 3 22 -4 41 -10 43 -14 2 -4 13 -5
24 -2 21 5 21 6 2 14 -13 5 -6 7 21 3 35 -4 37 -3 15 6 -54 24 -203 53 -214
42z"/>
<path d="M2188 3213 c7 -3 16 -2 19 1 4 3 -2 6 -13 5 -11 0 -14 -3 -6 -6z"/>
<path d="M3268 3213 c7 -3 16 -2 19 1 4 3 -2 6 -13 5 -11 0 -14 -3 -6 -6z"/>
<path d="M2338 3203 c7 -3 16 -2 19 1 4 3 -2 6 -13 5 -11 0 -14 -3 -6 -6z"/>
<path d="M3158 3173 c7 -3 16 -2 19 1 4 3 -2 6 -13 5 -11 0 -14 -3 -6 -6z"/>
<path d="M2458 3163 c7 -3 16 -2 19 1 4 3 -2 6 -13 5 -11 0 -14 -3 -6 -6z"/>
<path d="M3335 3133 c-49 -19 -168 -59 -265 -89 -684 -213 -905 -310 -1176
-514 -91 -70 -231 -208 -255 -251 -12 -23 -12 -23 12 -6 347 245 906 470 1689
677 221 59 472 129 476 133 5 4 -358 87 -377 86 -8 -1 -54 -17 -104 -36z"/>
<path d="M2355 3150 c-28 -7 -28 -8 -5 -9 14 0 32 4 40 9 17 11 8 11 -35 0z"/>
<path d="M2468 3143 c7 -3 16 -2 19 1 4 3 -2 6 -13 5 -11 0 -14 -3 -6 -6z"/>
<path d="M2670 3140 c-8 -5 -12 -11 -10 -13 18 -15 78 -37 102 -37 20 0 31 -6
38 -22 5 -14 9 -17 9 -8 1 9 13 23 29 32 29 19 14 25 -19 8 -10 -6 -19 -7 -19
-2 0 14 22 30 50 35 25 4 -10 1 -87 -9 -34 -5 -44 -3 -49 10 -7 18 -22 20 -44
6z"/>
<path d="M2971 3138 c-24 -6 -31 -12 -22 -18 10 -5 10 -9 2 -13 -7 -3 -7 -4 1
-2 7 1 12 8 10 15 -2 9 9 11 40 7 24 -2 37 -3 30 0 -6 3 -10 9 -6 14 6 11 -10
10 -55 -3z"/>
<path d="M2158 3118 c6 -6 18 -8 28 -6 14 3 12 5 -9 10 -19 3 -25 2 -19 -4z"/>
<path d="M2060 3110 c-25 -5 -54 -6 -65 -4 -14 4 -16 3 -7 -4 9 -6 -5 -11 -45
-16 -86 -10 -133 -25 -133 -41 0 -8 5 -15 10 -15 6 0 10 6 10 13 0 8 27 13 95
15 61 2 95 -1 95 -8 0 -5 14 -10 30 -10 55 0 31 18 -37 27 -59 9 -62 10 -25
12 23 0 42 6 42 11 0 6 14 10 31 10 27 0 30 -2 19 -15 -11 -13 -10 -14 4 -9 9
3 16 1 16 -5 0 -6 14 -10 34 -8 37 2 39 16 3 18 -12 0 -17 3 -11 5 6 3 30 1
53 -5 24 -5 41 -5 41 0 0 5 7 9 15 9 8 0 15 7 15 15 0 8 -9 15 -20 15 -11 0
-20 -4 -20 -10 0 -5 -18 -10 -40 -10 -22 0 -40 5 -40 10 0 11 -5 11 -70 0z"/>
<path d="M2888 3101 c10 -6 5 -10 -17 -14 -17 -4 -31 -12 -31 -18 0 -8 4 -8
13 -1 6 5 28 13 47 17 30 7 32 9 15 16 -27 10 -43 11 -27 0z"/>
<path d="M1777 3048 c-8 -30 -1 -35 12 -9 6 11 7 22 2 25 -5 3 -11 -4 -14 -16z"/>
<path d="M2624 3058 c-5 -7 -2 -9 9 -5 11 4 15 1 12 -11 -2 -14 6 -17 44 -18
27 -1 38 2 27 6 -19 6 -18 7 3 13 13 3 20 10 16 16 -9 15 -102 14 -111 -1z
m63 -14 c-3 -3 -12 -4 -19 -1 -8 3 -5 6 6 6 11 1 17 -2 13 -5z"/>
<path d="M2576 3046 c3 -9 11 -16 16 -16 13 0 5 23 -10 28 -7 2 -10 -2 -6 -12z"/>
<path d="M2745 3040 c-8 -13 5 -13 25 0 13 8 13 10 -2 10 -9 0 -20 -4 -23 -10z"/>
<path d="M2086 3024 c-6 -15 57 -27 119 -22 29 2 41 8 43 21 3 16 -4 18 -77
16 -55 -1 -81 -6 -85 -15z"/>
<path d="M1923 3018 c2 -7 19 -13 37 -13 18 0 35 6 38 13 2 8 -9 12 -38 12
-29 0 -40 -4 -37 -12z"/>
<path d="M1790 3003 c-37 -26 -45 -36 -46 -60 -1 -26 4 -27 43 -12 20 7 24 12
14 18 -24 15 27 34 70 27 31 -5 39 -3 39 9 0 11 -11 15 -44 15 -24 0 -46 5
-48 10 -2 6 -14 3 -28 -7z m30 -13 c0 -5 -5 -10 -11 -10 -5 0 -7 5 -4 10 3 6
8 10 11 10 2 0 4 -4 4 -10z"/>
<path d="M2556 3005 c-4 -11 1 -15 17 -15 14 0 18 -3 10 -8 -7 -4 -52 -7 -100
-7 -78 1 -84 0 -58 -11 l30 -12 -25 -4 -25 -4 27 -5 c17 -4 25 -2 21 4 -3 6 6
8 25 5 17 -2 33 -1 34 4 2 5 17 10 33 12 41 6 65 16 65 28 0 6 8 8 18 6 11 -3
29 0 42 7 21 11 20 12 -19 12 -22 0 -41 -4 -41 -8 0 -5 -7 -9 -15 -9 -8 0 -15
5 -15 10 0 15 -17 12 -24 -5z"/>
<path d="M3580 2955 c-91 -23 -221 -57 -290 -75 -69 -17 -170 -45 -225 -61
-55 -16 -116 -34 -135 -39 -19 -5 -116 -35 -215 -66 -411 -129 -742 -273 -980
-425 -58 -37 -63 -54 -7 -25 204 105 1016 292 1747 403 149 22 279 44 285 48
12 7 7 278 -5 281 -5 1 -84 -17 -175 -41z"/>
<path d="M2287 2970 c-9 -11 -26 -20 -37 -20 -11 0 -20 -7 -20 -15 0 -21 48
-20 52 1 2 11 16 18 43 21 45 5 50 7 40 22 -11 18 -59 12 -78 -9z"/>
<path d="M1980 2960 c-8 -5 -17 -7 -21 -4 -4 2 -10 0 -14 -6 -3 -5 7 -12 22
-16 15 -3 34 -7 41 -10 6 -2 12 0 12 4 0 20 -26 41 -40 32z"/>
<path d="M2376 2943 c-23 -23 13 -47 49 -31 18 8 18 8 -2 4 -15 -3 -23 1 -23
9 0 16 -15 27 -24 18z"/>
<path d="M2035 2901 c-3 -5 0 -13 7 -17 7 -5 4 -10 -12 -16 -12 -5 -20 -11
-16 -15 7 -7 57 16 68 32 4 5 4 13 2 17 -7 11 -42 10 -49 -1z"/>
<path d="M2172 2880 c-7 -11 -9 -20 -4 -20 10 0 32 22 32 32 0 15 -15 8 -28
-12z"/>
<path d="M2298 2887 c15 -7 29 -7 45 0 19 9 15 10 -23 10 -38 0 -42 -1 -22
-10z"/>
<path d="M2262 2876 c10 -7 15 -16 11 -19 -3 -4 -1 -7 5 -7 21 0 23 19 3 29
-27 15 -40 13 -19 -3z"/>
<path d="M2223 2863 c-13 -2 -23 -11 -23 -19 0 -11 4 -12 19 -4 14 7 21 6 23
-2 3 -9 6 -9 12 0 4 7 2 12 -4 12 -6 0 -8 5 -5 10 3 6 5 9 3 9 -2 -1 -13 -4
-25 -6z"/>
<path d="M1850 2844 c-30 -8 -64 -14 -75 -13 -38 3 -45 -1 -44 -23 1 -17 2
-19 6 -5 4 14 16 17 68 17 35 0 67 5 70 10 3 6 15 10 26 10 10 0 19 5 19 10 0
12 -2 12 -70 -6z"/>
<path d="M1948 2843 c12 -2 30 -2 40 0 9 3 -1 5 -23 4 -22 0 -30 -2 -17 -4z"/>
<path d="M1910 2815 c15 -18 51 -16 58 3 2 8 -8 12 -33 12 -33 0 -36 -2 -25
-15z"/>
<path d="M1989 2821 c12 -8 12 -12 -2 -25 -9 -9 -19 -25 -22 -36 -3 -11 -14
-20 -23 -21 -9 0 0 -7 21 -16 27 -11 41 -13 49 -5 8 8 4 9 -13 6 -20 -5 -21
-4 -9 6 13 10 13 11 -2 6 -10 -3 -18 -1 -18 4 0 6 19 10 43 11 23 0 62 8 87
18 41 17 42 19 21 26 -18 6 -21 9 -10 16 10 6 6 8 -13 7 -16 -1 -24 -7 -20
-13 15 -23 0 -42 -35 -44 -22 -1 -14 16 9 22 l22 6 -24 21 c-12 11 -35 20 -49
20 -19 0 -22 -3 -12 -9z m41 -21 c0 -5 -4 -10 -10 -10 -5 0 -10 5 -10 10 0 6
5 10 10 10 6 0 10 -4 10 -10z"/>
<path d="M2148 2813 c6 -2 9 -10 6 -15 -4 -7 -2 -8 5 -4 13 9 5 26 -12 25 -9
0 -8 -2 1 -6z"/>
<path d="M1752 2735 c-2 -38 -5 -55 -11 -47 -6 10 -10 7 -13 -12 -3 -14 -2
-23 3 -21 4 3 10 -5 12 -17 3 -16 4 -15 2 4 -1 15 2 29 7 30 5 2 7 30 5 63
l-3 60 -2 -60z"/>
<path d="M1722 2750 c0 -14 2 -19 5 -12 2 6 2 18 0 25 -3 6 -5 1 -5 -13z"/>
<path d="M1940 2705 c7 -8 17 -12 22 -9 6 4 5 10 -3 15 -22 14 -33 10 -19 -6z"/>
<path d="M1840 2654 c0 -21 19 -27 35 -11 12 13 11 15 -10 20 -16 3 -25 0 -25
-9z"/>
<path d="M1760 2631 c0 -11 -3 -28 -6 -38 -5 -12 -4 -15 3 -8 15 15 25 65 13
65 -5 0 -10 -9 -10 -19z"/>
<path d="M1790 2646 c0 -2 7 -6 15 -10 8 -3 15 -1 15 4 0 6 -7 10 -15 10 -8 0
-15 -2 -15 -4z"/>
<path d="M1805 2610 c-3 -6 1 -7 9 -4 18 7 21 14 7 14 -6 0 -13 -4 -16 -10z"/>
<path d="M1765 2570 c-3 -6 1 -7 9 -4 18 7 21 14 7 14 -6 0 -13 -4 -16 -10z"/>
<path d="M1610 1950 l0 -50 75 0 c55 0 75 -3 74 -12 -1 -7 -1 -91 0 -185 l1
-173 50 0 50 0 0 185 0 185 70 0 70 0 0 50 0 50 -195 0 -195 0 0 -50z"/>
<path d="M2120 1766 l0 -236 50 0 50 0 0 75 0 75 43 -1 c41 0 43 -1 89 -75
l47 -74 61 0 60 0 -27 43 c-15 23 -40 59 -55 81 l-28 38 33 22 c90 60 88 208
-3 261 -30 17 -56 21 -177 23 l-143 4 0 -236z m272 113 c25 -29 22 -55 -7 -84
-21 -22 -33 -25 -95 -25 l-70 0 0 71 0 72 77 -6 c64 -5 81 -10 95 -28z"/>
<path d="M2791 1978 c-5 -13 -40 -97 -78 -188 -38 -91 -76 -181 -83 -200 -7
-19 -18 -41 -23 -47 -7 -10 2 -13 42 -13 l51 0 25 50 26 51 101 -3 100 -3 18
-45 18 -45 56 -3 56 -3 -32 73 c-17 40 -61 145 -99 233 l-67 160 -51 3 c-46 3
-52 1 -60 -20z m93 -187 c14 -36 26 -66 26 -68 0 -2 -27 -3 -60 -3 -33 0 -60
3 -60 7 0 21 54 142 61 136 4 -4 19 -37 33 -72z"/>
<path d="M3103 1988 c3 -7 47 -116 98 -241 l92 -228 45 3 46 3 88 220 c49 121
91 228 94 237 5 16 -2 18 -49 18 l-54 0 -59 -160 c-32 -88 -62 -160 -65 -160
-3 0 -33 72 -65 160 l-59 160 -59 0 c-43 0 -57 -3 -53 -12z"/>
<path d="M3680 1765 l0 -235 180 0 180 0 0 45 0 45 -131 0 -130 0 3 48 3 47
113 3 112 3 0 44 0 44 -112 3 -113 3 0 45 0 45 128 3 127 3 0 44 0 45 -180 0
-180 0 0 -235z"/>
<path d="M4170 1765 l0 -235 170 0 170 0 0 45 0 45 -120 0 -120 0 0 190 0 190
-50 0 -50 0 0 -235z"/>
</g>
</svg>
